{"title":"Three Sisters with Maiden Hearts (1935, d. Mikio Naruse)","uid":10173702,"size":1018735819,"categoryP":"video","categoryS":"movies","magnet":"?xt=urn:btih:55b6511737ed6a18b225ee872b7e34138a3bc79f&amp;dn=Three+Sisters+with+Maiden+Hearts+%281935%2C+d.+Mikio+Naruse%29&amp;tr=udp%3A%2F%2Ftracker.openbittorrent.com%3A80&amp;tr=udp%3A%2F%2Fopen.demonii.com%3A1337&amp;tr=udp%3A%2F%2Ftracker.coppersurfer.tk%3A6969&amp;tr=udp%3A%2F%2Fexodus.desync.com%3A6969","seeders":1,"leechers":0,"uploader":"wesleybl","files":2,"time":1400440982,"description":"IMDB: http://www.imdb.com/title/tt0026831\n\nDirector: Mikio Naruse\n\n\nVideo\nID                                       : 0\nFormat                                   : MPEG-4 Visual\nFormat profile                           : Advanced Simple@L5\nFormat settings, BVOP                    : 1\nFormat settings, QPel                    : No\nFormat settings, GMC                     : No warppoints\nFormat settings, Matrix                  : Custom\nCodec ID                                 : XVID\nCodec ID/Hint                            : XviD\nDuration                                 : 1h 16mn\nBit rate                                 : 1 600 Kbps\nWidth                                    : 668 pixels\nHeight                                   : 528 pixels\nDisplay aspect ratio                     : 5:4\nFrame rate                               : 29.970 fps\nColor space                              : YUV\nChroma subsampling                       : 4:2:0\nBit depth                                : 8 bits\nScan type                                : Progressive\nCompression mode                         : Lossy\nBits/(Pixel*Frame)                       : 0.151\nStream size                              : 870 MiB (90%)\nWriting library                          : XviD 1.2.0.dev47 (UTC 2006-11-01)\n\nAudio\nID                                       : 1\nFormat                                   : MPEG Audio\nFormat version                           : Version 1\nFormat profile                           : Layer 3\nMode                                     : Joint stereo\nMode extension                           : MS Stereo\nCodec ID                                 : 55\nCodec ID/Hint                            : MP3\nDuration                                 : 1h 16mn\nBit rate mode                            : Variable\nBit rate                                 : 174 Kbps\nChannel(s)                               : 2 channels\nSampling rate                            : 48.0 KHz\nCompression mode                         : Lossy\nStream size                              : 94.4 MiB (10%)\nAlignment                                : Aligned on interleaves\nInterleave, duration                     : 24 ms (0.72 video frame)\nInterleave, preload duration             : 521 ms","torrent":{"xt":"urn:btih:55b6511737ed6a18b225ee872b7e34138a3bc79f","amp;dn":"Three+Sisters+with+Maiden+Hearts+%281935%2C+d.+Mikio+Naruse%29","amp;tr":["udp%3A%2F%2Ftracker.openbittorrent.com%3A80","udp%3A%2F%2Fopen.demonii.com%3A1337","udp%3A%2F%2Ftracker.coppersurfer.tk%3A6969","udp%3A%2F%2Fexodus.desync.com%3A6969"],"infoHash":"55b6511737ed6a18b225ee872b7e34138a3bc79f","infoHashBuffer":{"type":"Buffer","data":[85,182,81,23,55,237,106,24,178,37,238,135,43,126,52,19,138,59,199,159]},"announce":[],"urlList":[]}}